<mxfile host="Electron" modified="2023-06-27T12:45:22.866Z" agent="Mozilla/5.0 (Windows NT 10.0; Win64; x64) AppleWebKit/537.36 (KHTML, like Gecko) draw.io/21.5.0 Chrome/112.0.5615.204 Electron/24.5.1 Safari/537.36" etag="4VLxJUDNqD2fsV-dK0Ax" version="21.5.0" type="device">
  <diagram name="Page-1" id="yv5jICF3e2GuEQLLz1QW">
    <mxGraphModel dx="1434" dy="844" grid="1" gridSize="10" guides="1" tooltips="1" connect="1" arrows="1" fold="1" page="1" pageScale="1" pageWidth="827" pageHeight="1169" math="0" shadow="0">
      <root>
        <mxCell id="0" />
        <mxCell id="1" parent="0" />
        <mxCell id="OlMU3i1HoqG-rrEnOK8V-1" value="" style="ellipse;html=1;shape=startState;fillColor=#000000;strokeColor=#ff0000;" vertex="1" parent="1">
          <mxGeometry x="170" y="40" width="30" height="30" as="geometry" />
        </mxCell>
        <mxCell id="OlMU3i1HoqG-rrEnOK8V-2" value="" style="edgeStyle=orthogonalEdgeStyle;html=1;verticalAlign=bottom;endArrow=open;endSize=8;strokeColor=#ff0000;rounded=0;" edge="1" source="OlMU3i1HoqG-rrEnOK8V-1" parent="1">
          <mxGeometry relative="1" as="geometry">
            <mxPoint x="185" y="130" as="targetPoint" />
          </mxGeometry>
        </mxCell>
        <mxCell id="OlMU3i1HoqG-rrEnOK8V-11" value="" style="edgeStyle=orthogonalEdgeStyle;rounded=0;orthogonalLoop=1;jettySize=auto;html=1;" edge="1" parent="1" source="OlMU3i1HoqG-rrEnOK8V-3" target="OlMU3i1HoqG-rrEnOK8V-4">
          <mxGeometry relative="1" as="geometry" />
        </mxCell>
        <mxCell id="OlMU3i1HoqG-rrEnOK8V-3" value="Saisir a" style="rounded=0;whiteSpace=wrap;html=1;" vertex="1" parent="1">
          <mxGeometry x="125" y="130" width="120" height="60" as="geometry" />
        </mxCell>
        <mxCell id="OlMU3i1HoqG-rrEnOK8V-12" value="" style="edgeStyle=orthogonalEdgeStyle;rounded=0;orthogonalLoop=1;jettySize=auto;html=1;" edge="1" parent="1" source="OlMU3i1HoqG-rrEnOK8V-4" target="OlMU3i1HoqG-rrEnOK8V-5">
          <mxGeometry relative="1" as="geometry" />
        </mxCell>
        <mxCell id="OlMU3i1HoqG-rrEnOK8V-4" value="Saisir b" style="rounded=0;whiteSpace=wrap;html=1;" vertex="1" parent="1">
          <mxGeometry x="125" y="230" width="120" height="60" as="geometry" />
        </mxCell>
        <mxCell id="OlMU3i1HoqG-rrEnOK8V-13" value="" style="edgeStyle=orthogonalEdgeStyle;rounded=0;orthogonalLoop=1;jettySize=auto;html=1;" edge="1" parent="1" source="OlMU3i1HoqG-rrEnOK8V-5" target="OlMU3i1HoqG-rrEnOK8V-6">
          <mxGeometry relative="1" as="geometry" />
        </mxCell>
        <mxCell id="OlMU3i1HoqG-rrEnOK8V-5" value="Additionner a et b" style="rounded=0;whiteSpace=wrap;html=1;" vertex="1" parent="1">
          <mxGeometry x="125" y="330" width="120" height="60" as="geometry" />
        </mxCell>
        <mxCell id="OlMU3i1HoqG-rrEnOK8V-14" value="" style="edgeStyle=orthogonalEdgeStyle;rounded=0;orthogonalLoop=1;jettySize=auto;html=1;" edge="1" parent="1" source="OlMU3i1HoqG-rrEnOK8V-6" target="OlMU3i1HoqG-rrEnOK8V-7">
          <mxGeometry relative="1" as="geometry" />
        </mxCell>
        <mxCell id="OlMU3i1HoqG-rrEnOK8V-6" value="" style="rounded=0;whiteSpace=wrap;html=1;" vertex="1" parent="1">
          <mxGeometry x="125" y="430" width="120" height="60" as="geometry" />
        </mxCell>
        <mxCell id="OlMU3i1HoqG-rrEnOK8V-15" value="" style="edgeStyle=orthogonalEdgeStyle;rounded=0;orthogonalLoop=1;jettySize=auto;html=1;" edge="1" parent="1" source="OlMU3i1HoqG-rrEnOK8V-7" target="OlMU3i1HoqG-rrEnOK8V-8">
          <mxGeometry relative="1" as="geometry" />
        </mxCell>
        <mxCell id="OlMU3i1HoqG-rrEnOK8V-7" value="" style="rounded=0;whiteSpace=wrap;html=1;" vertex="1" parent="1">
          <mxGeometry x="125" y="525" width="120" height="60" as="geometry" />
        </mxCell>
        <mxCell id="OlMU3i1HoqG-rrEnOK8V-18" value="" style="edgeStyle=orthogonalEdgeStyle;rounded=0;orthogonalLoop=1;jettySize=auto;html=1;" edge="1" parent="1" source="OlMU3i1HoqG-rrEnOK8V-8" target="OlMU3i1HoqG-rrEnOK8V-16">
          <mxGeometry relative="1" as="geometry" />
        </mxCell>
        <mxCell id="OlMU3i1HoqG-rrEnOK8V-8" value="a = c" style="rounded=0;whiteSpace=wrap;html=1;" vertex="1" parent="1">
          <mxGeometry x="125" y="620" width="120" height="60" as="geometry" />
        </mxCell>
        <mxCell id="OlMU3i1HoqG-rrEnOK8V-9" value="" style="ellipse;html=1;shape=endState;fillColor=#000000;strokeColor=#ff0000;" vertex="1" parent="1">
          <mxGeometry x="170" y="810" width="30" height="30" as="geometry" />
        </mxCell>
        <mxCell id="OlMU3i1HoqG-rrEnOK8V-17" value="" style="edgeStyle=orthogonalEdgeStyle;rounded=0;orthogonalLoop=1;jettySize=auto;html=1;" edge="1" parent="1" source="OlMU3i1HoqG-rrEnOK8V-16" target="OlMU3i1HoqG-rrEnOK8V-9">
          <mxGeometry relative="1" as="geometry" />
        </mxCell>
        <mxCell id="OlMU3i1HoqG-rrEnOK8V-16" value="" style="rounded=0;whiteSpace=wrap;html=1;" vertex="1" parent="1">
          <mxGeometry x="125" y="720" width="120" height="60" as="geometry" />
        </mxCell>
      </root>
    </mxGraphModel>
  </diagram>
</mxfile>
